# xmcd
#
# Track frame offsets: 
#        150
#        30842
#        83207
#        116373
#        137192
#        199500
#
# Disc length: 3101 seconds
#
# Revision: 0
# Processed by: cddbd v1.5.2PL0 Copyright (c) Steve Scherf et al.
# Submitted via: ExactAudioCopy v1.0b3
#
DISCID=410c1b06
DTITLE=Eric Clapton - Here's To The Next 150! [CD 2)
DYEAR=2011
DGENRE=Blues
TTITLE0=Badge
TTITLE1=Little Queen Of Spades
TTITLE2=Before You Accuse Me
TTITLE3=Wonderful Tonight
TTITLE4=Cocaine
TTITLE5=Crossroads
EXTD=
EXTT0=
EXTT1=
EXTT2=
EXTT3=
EXTT4=
EXTT5=
PLAYORDER=
